<svg xmlns="http://www.w3.org/2000/svg" viewBox="0 0 300 300">
    <path d="M202.5 35.8c-5.2 2.2-7.5 2.6-17.2 2.6-10.4.1-11.3.3-13.7 2.5-1.4 1.4-2.6 3.2-2.6 4.2 0 1.6-.5 1.6-5.2-.6-8.4-3.8-16.4-5.5-28.9-6.2-10.4-.5-11.6-.4-12.2 1.1-.4 1-.3 2.5.3 3.5.5 1 1.8 5.1 3 9.2 1.1 4.1 2.7 7.9 3.5 8.5.8.6 5.2 1.4 9.8 1.8 4.5.4 10.7 1.3 13.7 1.9l5.5 1.3-10 .7c-26.3 1.9-47.1 11.1-59.9 26.6C82.7 100 78.5 108.7 74 123c-2.3 7.4-6 17-8.2 21.2-3.9 7.5-10.3 14.7-13.3 14.9-3.5.3-4 .6-3.7 1.9 1 4.7 7.6 10 12.4 10h2.7l-2.7 5.7c-2 4.5-2.7 7.7-3 14.2-.5 9.4.6 14 4.4 19.6l2.5 3.8-5.1-.6-5.1-.6 2.8 5c3.5 6.6 10 12.2 17.2 15.1 4.5 1.8 7.6 2.2 16.3 2.3h10.7l-6.6 4.2c-7.7 5-15.6 8.1-21.3 8.5-2.2.2-4 .6-4 1 0 .5 1.8 2.6 4 4.8 7.5 7.5 19.8 12 33 12 15 0 26-4.8 37.3-16.2 4.3-4.3 8.5-7.8 9.5-7.8.9 0 3.6-.9 6-2 3.2-1.5 4.9-1.7 6.8-1 4.1 1.6 13.7 1.1 20.3-.9 17.2-5.3 30.7-21.3 36.1-42.5 1.1-4.4 2-10 2-12.5v-4.6l5.2.3c9.8.6 18.9-6.8 20.4-16.6.6-4.1.6-4.2-2.2-4.2-4.4-.1-10.5-3.3-14.1-7.3-4.8-5.4-7.8-11-14.9-27.9-3.6-8.4-8.3-18.7-10.5-22.8-4.6-8.5-3.2-7.2 6.7 5.8 3.1 4 6.6 7.7 7.9 8.2 3.5 1.3 19.4 0 21.1-1.7.8-.8 1.4-1.8 1.4-2.3 0-1.7-15-21-22.1-28.4-6.5-6.9-7-7.7-5.5-9.1 3.3-3.3 2-8.5-4.9-19.5-3.5-5.7-4-7.2-4-12.7 0-3.4-.3-6.4-.5-6.6-.3-.2-3.2.7-6.5 2.1z"/>
</svg>
